<svg version="1.1" viewBox="0.0 0.0 960.0 720.0" fill="none" stroke="none" stroke-linecap="square" stroke-miterlimit="10" xmlns:xlink="http://www.w3.org/1999/xlink" xmlns="http://www.w3.org/2000/svg"><clipPath id="p.0"><path d="m0 0l960.0 0l0 720.0l-960.0 0l0 -720.0z" clip-rule="nonzero"/></clipPath><g clip-path="url(#p.0)"><path fill="#000000" fill-opacity="0.0" d="m0 0l960.0 0l0 720.0l-960.0 0z" fill-rule="evenodd"/><path fill="#000000" fill-opacity="0.0" d="m366.61417 284.41022l0 0c0 -20.874176 16.921875 -37.79605 37.79605 -37.79605l151.17957 0l0 0c10.02417 0 19.637695 3.982071 26.72583 11.070221c7.088135 7.0881042 11.07019 16.70169 11.07019 26.72583l0 151.17957c0 20.874176 -16.921814 37.79605 -37.79602 37.79605l-151.17957 0c-20.874176 0 -37.79605 -16.921875 -37.79605 -37.79605z" fill-rule="evenodd"/><path stroke="#000000" stroke-width="3.0" stroke-linejoin="round" stroke-linecap="butt" d="m366.61417 284.41022l0 0c0 -20.874176 16.921875 -37.79605 37.79605 -37.79605l151.17957 0l0 0c10.02417 0 19.637695 3.982071 26.72583 11.070221c7.088135 7.0881042 11.07019 16.70169 11.07019 26.72583l0 151.17957c0 20.874176 -16.921814 37.79605 -37.79602 37.79605l-151.17957 0c-20.874176 0 -37.79605 -16.921875 -37.79605 -37.79605z" fill-rule="evenodd"/><path fill="#000000" fill-opacity="0.0" d="m371.87402 263.0551l216.25195 0l0 96.944885l-216.25195 0z" fill-rule="evenodd"/><path fill="#000000" d="m392.92526 329.76755q-1.125 0 -1.890625 -0.75q-0.75 -0.765625 -0.75 -1.890625l0 -34.28125q0 -1.171875 0.75 -1.90625q0.765625 -0.734375 1.890625 -0.734375l9.171875 0q4.34375 0 7.921875 1.453125q3.578125 1.4375 6.203125 4.09375q2.640625 2.65625 4.046875 6.265625q1.421875 3.59375 1.421875 7.9375q0 4.359375 -1.421875 7.984375q-1.40625 3.625 -4.046875 6.28125q-2.625 2.65625 -6.203125 4.109375q-3.578125 1.4375 -7.921875 1.4375l-9.171875 0zm2.625 -4.65625l6.546875 0q4.25 0 7.515625 -1.953125q3.265625 -1.953125 5.140625 -5.375q1.875 -3.421875 1.875 -7.828125q0 -4.453125 -1.875 -7.84375q-1.875 -3.390625 -5.140625 -5.3125q-3.265625 -1.9375 -7.515625 -1.9375l-6.546875 0l0 30.25zm42.35138 5.359375q-3.1875 0 -5.625 -1.1875q-2.421875 -1.1875 -3.765625 -3.390625q-1.34375 -2.203125 -1.34375 -5.296875q0 -3.4375 2.328125 -6.21875q2.328125 -2.796875 6.125 -5.828125l4.203125 -3.34375q2.6875 -2.140625 3.4375 -3.75q0.765625 -1.625 0.828125 -3.34375q0 -1.921875 -1.296875 -3.34375q-1.296875 -1.421875 -3.71875 -1.421875q-2.234375 0 -3.609375 1.328125q-1.359375 1.3125 -1.359375 3.078125q0 1.3125 0.578125 2.578125q0.59375 1.265625 1.90625 2.59375l23.046875 23.0q0.8125 0.796875 0.90625 1.515625q0.109375 0.703125 -0.703125 1.515625q-1.625 1.625 -3.25 0l-23.296875 -23.25q-1.71875 -1.765625 -2.640625 -3.71875q-0.90625 -1.953125 -0.90625 -4.125q0 -2.4375 1.21875 -4.390625q1.21875 -1.953125 3.34375 -3.0625q2.125 -1.109375 4.765625 -1.109375q2.734375 0 4.828125 1.171875q2.109375 1.15625 3.328125 3.1875q1.21875 2.015625 1.21875 4.546875q0 1.984375 -0.6875 3.609375q-0.6875 1.609375 -2.109375 3.15625q-1.421875 1.546875 -3.6875 3.375l-4.015625 3.1875q-1.71875 1.359375 -3.09375 2.78125q-1.359375 1.421875 -2.140625 2.921875q-0.78125 1.484375 -0.78125 3.15625q0 2.84375 1.5625 4.296875q1.578125 1.4375 4.40625 1.4375q3.046875 0 5.296875 -1.390625q2.25 -1.40625 4.578125 -3.828125l7.40625 -7.8125q0.75 -0.796875 1.40625 -1.0q0.671875 -0.203125 1.484375 0.546875q0.796875 0.765625 0.828125 1.578125q0.03125 0.8125 -0.734375 1.671875l-7.390625 7.796875q-2.640625 2.984375 -5.734375 4.890625q-3.078125 1.890625 -7.140625 1.890625zm31.717285 -0.703125q-1.125 0 -1.890625 -0.75q-0.75 -0.765625 -0.75 -1.890625l0 -34.28125q0 -1.171875 0.75 -1.90625q0.765625 -0.734375 1.890625 -0.734375l9.171875 0q4.34375 0 7.921875 1.453125q3.578125 1.4375 6.203125 4.09375q2.640625 2.65625 4.046875 6.265625q1.421875 3.59375 1.421875 7.9375q0 4.359375 -1.421875 7.984375q-1.40625 3.625 -4.046875 6.28125q-2.625 2.65625 -6.203125 4.109375q-3.578125 1.4375 -7.921875 1.4375l-9.171875 0zm2.625 -4.65625l6.546875 0q4.25 0 7.515625 -1.953125q3.265625 -1.953125 5.140625 -5.375q1.875 -3.421875 1.875 -7.828125q0 -4.453125 -1.875 -7.84375q-1.875 -3.390625 -5.140625 -5.3125q-3.265625 -1.9375 -7.515625 -1.9375l-6.546875 0l0 30.25zm51.119293 5.15625q-4.109375 0 -7.6875 -1.53125q-3.5625 -1.546875 -6.2187195 -4.3125q-2.65625 -2.765625 -4.15625 -6.453125q-1.5 -3.703125 -1.5 -8.015625q0 -4.25 1.5 -7.921875q1.5 -3.671875 4.15625 -6.421875q2.6562195 -2.765625 6.2030945 -4.328125q3.546875 -1.578125 7.703125 -1.578125q3.90625 0 6.703125 1.015625q2.8125 1.0 5.65625 3.328125q0.40625 0.3125 0.625 0.640625q0.234375 0.328125 0.3125 0.65625q0.078125 0.328125 0.078125 0.78125q0 0.96875 -0.6875 1.625q-0.6875 0.65625 -1.671875 0.71875q-0.984375 0.046875 -1.84375 -0.671875q-1.875 -1.609375 -3.875 -2.46875q-2.0 -0.875 -5.296875 -0.875q-2.984375 0 -5.625 1.21875q-2.640625 1.21875 -4.640625 3.34375q-1.9999695 2.125 -3.1093445 4.9375q-1.109375 2.8125 -1.109375 6.0q0 3.25 1.109375 6.0625q1.109375 2.8125 3.1093445 4.9375q2.0 2.125 4.640625 3.3125q2.640625 1.1875 5.625 1.1875q2.578125 0 4.875 -0.875q2.3125 -0.890625 4.4375 -2.46875q0.921875 -0.65625 1.796875 -0.578125q0.890625 0.078125 1.5 0.71875q0.609375 0.625 0.609375 1.734375q0 0.515625 -0.1875 1.0q-0.171875 0.46875 -0.625 0.875q-2.6875 2.234375 -5.828125 3.328125q-3.140625 1.078125 -6.578125 1.078125zm13.21875 -6.28125l-5.0625 -1.0l0 -9.078125l-7.0 0q-1.109375 0 -1.875 -0.65625q-0.75 -0.65625 -0.75 -1.671875q0 -1.015625 0.75 -1.671875q0.765625 -0.65625 1.875 -0.65625l9.484375 0q1.15625 0 1.859375 0.734375q0.71875 0.734375 0.71875 1.90625l0 12.09375zm20.96936 6.28125q-3.234375 0 -6.171875 -1.0q-2.9375 -1.015625 -5.125 -2.84375q-2.171875 -1.828125 -3.1875 -4.203125q-0.5 -1.0625 0.03125 -1.96875q0.53125 -0.921875 1.796875 -1.171875q0.90625 -0.203125 1.796875 0.28125q0.890625 0.484375 1.34375 1.4375q0.609375 1.265625 2.0 2.328125q1.390625 1.0625 3.359375 1.734375q1.984375 0.65625 4.15625 0.65625q2.4375 0 4.484375 -0.765625q2.046875 -0.765625 3.3125 -2.203125q1.28125 -1.4375 1.28125 -3.578125q0 -2.671875 -2.109375 -4.796875q-2.109375 -2.140625 -6.921875 -2.640625q-6.28125 -0.609375 -9.875 -3.703125q-3.59375 -3.09375 -3.59375 -7.640625q0 -3.34375 1.875 -5.671875q1.875 -2.34375 5.09375 -3.546875q3.21875 -1.21875 7.171875 -1.21875q3.078125 0 5.375 0.859375q2.3125 0.859375 4.03125 2.390625q1.734375 1.515625 3.0 3.578125q0.703125 1.125 0.578125 2.109375q-0.125 0.984375 -0.984375 1.546875q-0.96875 0.609375 -2.078125 0.25q-1.109375 -0.359375 -1.671875 -1.3125q-0.8125 -1.46875 -1.984375 -2.484375q-1.15625 -1.015625 -2.734375 -1.59375q-1.5625 -0.578125 -3.6875 -0.578125q-3.75 -0.0625 -6.28125 1.390625q-2.53125 1.4375 -2.53125 4.421875q0 1.53125 0.78125 2.921875q0.78125 1.390625 2.875 2.40625q2.109375 1.015625 6.0625 1.421875q6.03125 0.59375 9.390625 3.671875q3.375 3.0625 3.375 8.078125q0 2.890625 -1.1875 5.015625q-1.1875 2.125 -3.1875 3.578125q-2.0 1.4375 -4.5625 2.140625q-2.5625 0.703125 -5.296875 0.703125z" fill-rule="nonzero"/><path fill="#000000" fill-opacity="0.0" d="m371.87402 376.44095l216.25195 0l0 96.944885l-216.25195 0z" fill-rule="evenodd"/><path fill="#000000" d="m453.2098 419.4734q-0.5 0 -0.828125 -0.328125q-0.328125 -0.34375 -0.328125 -0.84375l0 -15.34375q0 -0.5 0.328125 -0.828125q0.34375 -0.34375 0.828125 -0.34375q0.5 0 0.828125 0.34375q0.34375 0.328125 0.34375 0.828125l0 14.15625l8.203125 0q0.5 0 0.84375 0.34375q0.34375 0.34375 0.34375 0.84375q0 0.5 -0.34375 0.84375q-0.34375 0.328125 -0.84375 0.328125l-9.375 0zm18.779663 0.09375q-1.828125 0 -3.234375 -0.796875q-1.40625 -0.8125 -2.21875 -2.21875q-0.796875 -1.421875 -0.796875 -3.265625q0 -1.859375 0.796875 -3.265625q0.8125 -1.421875 2.21875 -2.21875q1.40625 -0.8125 3.234375 -0.8125q1.8125 0 3.21875 0.8125q1.40625 0.796875 2.203125 2.21875q0.8125 1.40625 0.8125 3.265625q0 1.84375 -0.796875 3.265625q-0.796875 1.40625 -2.203125 2.21875q-1.390625 0.796875 -3.234375 0.796875zm0 -2.046875q1.171875 0 2.078125 -0.53125q0.90625 -0.546875 1.421875 -1.5q0.515625 -0.953125 0.515625 -2.203125q0 -1.25 -0.515625 -2.203125q-0.515625 -0.96875 -1.421875 -1.5q-0.90625 -0.546875 -2.078125 -0.546875q-1.171875 0 -2.078125 0.546875q-0.90625 0.53125 -1.4375 1.5q-0.515625 0.953125 -0.515625 2.203125q0 1.25 0.515625 2.203125q0.53125 0.953125 1.4375 1.5q0.90625 0.53125 2.078125 0.53125zm14.839813 2.046875q-1.703125 0 -3.0 -0.796875q-1.296875 -0.8125 -2.046875 -2.21875q-0.75 -1.421875 -0.75 -3.265625q0 -1.859375 0.796875 -3.265625q0.8125 -1.421875 2.21875 -2.21875q1.40625 -0.8125 3.234375 -0.8125q1.8125 0 3.21875 0.8125q1.40625 0.796875 2.203125 2.21875q0.8125 1.40625 0.8125 3.265625l-1.34375 0q0 1.84375 -0.6875 3.265625q-0.6875 1.40625 -1.890625 2.21875q-1.203125 0.796875 -2.765625 0.796875zm0.40625 5.046875q-1.609375 0 -3.015625 -0.640625q-1.40625 -0.625 -2.375 -1.84375q-0.296875 -0.390625 -0.21875 -0.796875q0.078125 -0.40625 0.453125 -0.65625q0.40625 -0.28125 0.84375 -0.1875q0.4375 0.09375 0.71875 0.453125q0.609375 0.78125 1.53125 1.203125q0.9375 0.4375 2.109375 0.4375q1.09375 0 2.0 -0.53125q0.921875 -0.515625 1.46875 -1.546875q0.546875 -1.015625 0.546875 -2.484375l0 -3.21875l0.75 -1.984375l1.46875 0.46875l0 4.890625q0 1.796875 -0.796875 3.25q-0.796875 1.46875 -2.21875 2.328125q-1.40625 0.859375 -3.265625 0.859375zm0.046875 -7.09375q1.171875 0 2.078125 -0.53125q0.90625 -0.546875 1.421875 -1.5q0.515625 -0.953125 0.515625 -2.203125q0 -1.25 -0.515625 -2.203125q-0.515625 -0.96875 -1.421875 -1.5q-0.90625 -0.546875 -2.078125 -0.546875q-1.171875 0 -2.078125 0.546875q-0.90625 0.53125 -1.4375 1.5q-0.515625 0.953125 -0.515625 2.203125q0 1.25 0.515625 2.203125q0.53125 0.953125 1.4375 1.5q0.90625 0.53125 2.078125 0.53125zm15.292969 2.046875q-1.828125 0 -3.2344055 -0.796875q-1.40625 -0.8125 -2.21875 -2.21875q-0.796875 -1.421875 -0.796875 -3.265625q0 -1.859375 0.796875 -3.265625q0.8125 -1.421875 2.21875 -2.21875q1.4062805 -0.8125 3.2344055 -0.8125q1.8125 0 3.21875 0.8125q1.40625 0.796875 2.203125 2.21875q0.8125 1.40625 0.8125 3.265625q0 1.84375 -0.796875 3.265625q-0.796875 1.40625 -2.203125 2.21875q-1.390625 0.796875 -3.234375 0.796875zm0 -2.046875q1.171875 0 2.078125 -0.53125q0.90625 -0.546875 1.421875 -1.5q0.515625 -0.953125 0.515625 -2.203125q0 -1.25 -0.515625 -2.203125q-0.515625 -0.96875 -1.421875 -1.5q-0.90625 -0.546875 -2.078125 -0.546875q-1.171875 0 -2.078125 0.546875q-0.9062805 0.53125 -1.4375305 1.5q-0.515625 0.953125 -0.515625 2.203125q0 1.25 0.515625 2.203125q0.53125 0.953125 1.4375305 1.5q0.90625 0.53125 2.078125 0.53125z" fill-rule="nonzero"/><path fill="#000000" d="m417.24698 451.97025q-0.484375 0 -0.828125 -0.328125q-0.328125 -0.328125 -0.328125 -0.828125l0 -10.328125q0.03125 -1.78125 0.84375 -3.203125q0.8125 -1.4375 2.21875 -2.265625q1.40625 -0.828125 3.171875 -0.828125q1.796875 0 3.203125 0.828125q1.40625 0.828125 2.21875 2.265625q0.828125 1.421875 0.828125 3.203125q0 1.796875 -0.765625 3.21875q-0.75 1.40625 -2.0625 2.234375q-1.3125 0.828125 -2.96875 0.828125q-1.328125 0 -2.453125 -0.546875q-1.125 -0.5625 -1.921875 -1.515625l0 6.109375q0 0.5 -0.3125 0.828125q-0.3125 0.328125 -0.84375 0.328125zm5.078125 -7.25q1.15625 0 2.0625 -0.546875q0.90625 -0.5625 1.4375 -1.515625q0.53125 -0.96875 0.53125 -2.171875q0 -1.21875 -0.53125 -2.171875q-0.53125 -0.96875 -1.4375 -1.515625q-0.90625 -0.5625 -2.0625 -0.5625q-1.125 0 -2.046875 0.5625q-0.921875 0.546875 -1.4375 1.515625q-0.515625 0.953125 -0.515625 2.171875q0 1.203125 0.515625 2.171875q0.515625 0.953125 1.4375 1.515625q0.921875 0.546875 2.046875 0.546875zm10.817932 -5.796875q0 -1.359375 0.65625 -2.4375q0.671875 -1.078125 1.796875 -1.703125q1.140625 -0.640625 2.5 -0.640625q1.359375 0 2.03125 0.453125q0.671875 0.4375 0.5 1.046875q-0.0625 0.3125 -0.265625 0.484375q-0.1875 0.171875 -0.4375 0.21875q-0.234375 0.046875 -0.53125 -0.03125q-1.453125 -0.28125 -2.609375 -0.03125q-1.15625 0.234375 -1.828125 0.921875q-0.671875 0.671875 -0.671875 1.71875l-1.140625 0zm0.015625 7.75q-0.546875 0 -0.84375 -0.28125q-0.296875 -0.28125 -0.296875 -0.84375l0 -10.140625q0 -0.53125 0.296875 -0.828125q0.296875 -0.296875 0.84375 -0.296875q0.5625 0 0.84375 0.28125q0.28125 0.28125 0.28125 0.84375l0 10.140625q0 0.53125 -0.28125 0.828125q-0.28125 0.296875 -0.84375 0.296875zm14.588623 0.09375q-1.828125 0 -3.234375 -0.796875q-1.40625 -0.8125 -2.21875 -2.21875q-0.796875 -1.421875 -0.796875 -3.265625q0 -1.859375 0.796875 -3.265625q0.8125 -1.421875 2.21875 -2.21875q1.40625 -0.8125 3.234375 -0.8125q1.8125 0 3.21875 0.8125q1.40625 0.796875 2.203125 2.21875q0.8125 1.40625 0.8125 3.265625q0 1.84375 -0.796875 3.265625q-0.796875 1.40625 -2.203125 2.21875q-1.390625 0.796875 -3.234375 0.796875zm0 -2.046875q1.171875 0 2.078125 -0.53125q0.90625 -0.546875 1.421875 -1.5q0.515625 -0.953125 0.515625 -2.203125q0 -1.25 -0.515625 -2.203125q-0.515625 -0.96875 -1.421875 -1.5q-0.90625 -0.546875 -2.078125 -0.546875q-1.171875 0 -2.078125 0.546875q-0.90625 0.53125 -1.4375 1.5q-0.515625 0.953125 -0.515625 2.203125q0 1.25 0.515625 2.203125q0.53125 0.953125 1.4375 1.5q0.90625 0.53125 2.078125 0.53125zm13.191071 1.9375q-0.703125 0 -1.09375 -0.75l-4.796875 -10.125q-0.1875 -0.390625 -0.046875 -0.765625q0.15625 -0.375 0.59375 -0.578125q0.375 -0.203125 0.765625 -0.0625q0.40625 0.125 0.609375 0.515625l4.484375 9.671875l-1.09375 0l4.453125 -9.671875q0.203125 -0.390625 0.609375 -0.515625q0.421875 -0.140625 0.859375 0.0625q0.40625 0.1875 0.53125 0.578125q0.140625 0.375 -0.03125 0.765625l-4.8125 10.125q-0.328125 0.75 -1.03125 0.75zm9.603088 0.015625q-0.5 0 -0.828125 -0.328125q-0.328125 -0.328125 -0.328125 -0.828125l0 -10.078125q0 -0.53125 0.328125 -0.84375q0.328125 -0.3125 0.828125 -0.3125q0.515625 0 0.828125 0.3125q0.328125 0.3125 0.328125 0.84375l0 10.078125q0 0.5 -0.328125 0.828125q-0.3125 0.328125 -0.828125 0.328125zm0 -14.40625q-0.609375 0 -1.0625 -0.4375q-0.4375 -0.453125 -0.4375 -1.0625q0 -0.609375 0.4375 -1.046875q0.453125 -0.453125 1.0625 -0.453125q0.609375 0 1.046875 0.453125q0.453125 0.4375 0.453125 1.046875q0 0.609375 -0.453125 1.0625q-0.4375 0.4375 -1.046875 0.4375zm9.967194 14.5q-1.578125 0 -2.9375 -0.484375q-1.34375 -0.5 -2.09375 -1.234375q-0.34375 -0.375 -0.28125 -0.828125q0.0625 -0.46875 0.4375 -0.765625q0.453125 -0.359375 0.890625 -0.296875q0.453125 0.046875 0.765625 0.390625q0.390625 0.421875 1.234375 0.796875q0.859375 0.375 1.890625 0.375q1.3125 0 2.0 -0.421875q0.703125 -0.4375 0.71875 -1.109375q0.03125 -0.6875 -0.640625 -1.1875q-0.671875 -0.5 -2.4375 -0.8125q-2.28125 -0.453125 -3.3125 -1.359375q-1.03125 -0.90625 -1.03125 -2.21875q0 -1.15625 0.671875 -1.90625q0.6875 -0.765625 1.75 -1.140625q1.0625 -0.375 2.21875 -0.375q1.5 0 2.640625 0.484375q1.15625 0.46875 1.84375 1.3125q0.3125 0.359375 0.28125 0.765625q-0.015625 0.390625 -0.375 0.65625q-0.359375 0.25 -0.859375 0.15625q-0.5 -0.09375 -0.84375 -0.40625q-0.5625 -0.546875 -1.21875 -0.75q-0.65625 -0.203125 -1.515625 -0.203125q-1.0 0 -1.6875 0.34375q-0.6875 0.34375 -0.6875 1.0q0 0.40625 0.203125 0.734375q0.21875 0.328125 0.84375 0.59375q0.640625 0.25 1.875 0.5q1.703125 0.34375 2.6875 0.875q0.984375 0.515625 1.40625 1.203125q0.4375 0.6875 0.4375 1.59375q0 1.046875 -0.5625 1.890625q-0.546875 0.828125 -1.625 1.328125q-1.078125 0.5 -2.6875 0.5zm9.177307 -0.09375q-0.5 0 -0.828125 -0.328125q-0.328125 -0.328125 -0.328125 -0.828125l0 -10.078125q0 -0.53125 0.328125 -0.84375q0.328125 -0.3125 0.828125 -0.3125q0.515625 0 0.828125 0.3125q0.328125 0.3125 0.328125 0.84375l0 10.078125q0 0.5 -0.328125 0.828125q-0.3125 0.328125 -0.828125 0.328125zm0 -14.40625q-0.609375 0 -1.0625 -0.4375q-0.4375 -0.453125 -0.4375 -1.0625q0 -0.609375 0.4375 -1.046875q0.453125 -0.453125 1.0625 -0.453125q0.609375 0 1.046875 0.453125q0.453125 0.4375 0.453125 1.046875q0 0.609375 -0.453125 1.0625q-0.4375 0.4375 -1.046875 0.4375zm11.076569 14.5q-1.828125 0 -3.234375 -0.796875q-1.40625 -0.8125 -2.21875 -2.21875q-0.796875 -1.421875 -0.796875 -3.265625q0 -1.859375 0.796875 -3.265625q0.8125 -1.421875 2.21875 -2.21875q1.40625 -0.8125 3.234375 -0.8125q1.8125 0 3.21875 0.8125q1.40625 0.796875 2.203125 2.21875q0.8125 1.40625 0.8125 3.265625q0 1.84375 -0.796875 3.265625q-0.796875 1.40625 -2.203125 2.21875q-1.390625 0.796875 -3.234375 0.796875zm0 -2.046875q1.171875 0 2.078125 -0.53125q0.90625 -0.546875 1.421875 -1.5q0.515625 -0.953125 0.515625 -2.203125q0 -1.25 -0.515625 -2.203125q-0.515625 -0.96875 -1.421875 -1.5q-0.90625 -0.546875 -2.078125 -0.546875q-1.171875 0 -2.078125 0.546875q-0.90625 0.53125 -1.4375 1.5q-0.515625 0.953125 -0.515625 2.203125q0 1.25 0.515625 2.203125q0.53125 0.953125 1.4375 1.5q0.90625 0.53125 2.078125 0.53125zm20.136658 1.96875q-0.5 0 -0.828125 -0.328125q-0.328125 -0.328125 -0.328125 -0.8125l0 -5.578125q0 -1.296875 -0.46875 -2.109375q-0.46875 -0.8125 -1.28125 -1.203125q-0.796875 -0.40625 -1.84375 -0.40625q-0.953125 0 -1.734375 0.390625q-0.765625 0.375 -1.21875 1.03125q-0.453125 0.640625 -0.453125 1.484375l-1.4218445 0q0 -1.4375 0.6874695 -2.546875q0.6875 -1.125 1.890625 -1.78125q1.203125 -0.65625 2.703125 -0.65625q1.5625 0 2.796875 0.671875q1.234375 0.65625 1.9375 1.953125q0.71875 1.28125 0.71875 3.171875l0 5.578125q0 0.484375 -0.328125 0.8125q-0.328125 0.328125 -0.828125 0.328125zm-9.3124695 0q-0.484375 0 -0.828125 -0.328125q-0.328125 -0.328125 -0.328125 -0.8125l0 -10.109375q0 -0.53125 0.328125 -0.84375q0.34375 -0.3125 0.828125 -0.3125q0.5312195 0 0.8437195 0.3125q0.3125 0.3125 0.3125 0.84375l0 10.109375q0 0.484375 -0.3125 0.8125q-0.3125 0.328125 -0.8437195 0.328125zm19.467133 0.078125q-1.65625 0 -2.96875 -0.828125q-1.3125 -0.828125 -2.078125 -2.234375q-0.75 -1.421875 -0.75 -3.21875q0 -1.78125 0.828125 -3.203125q0.828125 -1.4375 2.234375 -2.265625q1.421875 -0.828125 3.1875 -0.828125q1.765625 0 3.171875 0.828125q1.40625 0.828125 2.234375 2.265625q0.828125 1.421875 0.828125 3.203125l-0.890625 0q0 1.796875 -0.765625 3.21875q-0.75 1.40625 -2.0625 2.234375q-1.3125 0.828125 -2.96875 0.828125zm0.453125 -2.046875q1.15625 0 2.0625 -0.546875q0.90625 -0.5625 1.421875 -1.515625q0.53125 -0.96875 0.53125 -2.171875q0 -1.21875 -0.53125 -2.171875q-0.515625 -0.96875 -1.421875 -1.515625q-0.90625 -0.5625 -2.0625 -0.5625q-1.125 0 -2.046875 0.5625q-0.921875 0.546875 -1.453125 1.515625q-0.53125 0.953125 -0.53125 2.171875q0 1.203125 0.53125 2.171875q0.53125 0.953125 1.453125 1.515625q0.921875 0.546875 2.046875 0.546875zm5.078125 1.96875q-0.5 0 -0.828125 -0.328125q-0.328125 -0.328125 -0.328125 -0.8125l0 -3.46875l0.421875 -2.40625l1.890625 0.8125l0 5.0625q0 0.484375 -0.328125 0.8125q-0.328125 0.328125 -0.828125 0.328125zm7.5429688 -0.015625q-1.0 0 -1.765625 -0.546875q-0.765625 -0.546875 -1.203125 -1.484375q-0.4375 -0.9375 -0.4375 -2.15625l0 -12.375q0 -0.5 0.3125 -0.8125q0.328125 -0.3125 0.828125 -0.3125q0.5 0 0.8125 0.3125q0.3125 0.3125 0.3125 0.8125l0 12.375q0 0.828125 0.3125 1.375q0.328125 0.546875 0.828125 0.546875l0.5625 0q0.453125 0 0.734375 0.328125q0.28125 0.3125 0.28125 0.8125q0 0.484375 -0.4375 0.8125q-0.421875 0.3125 -1.09375 0.3125l-0.046875 0z" fill-rule="nonzero"/></g></svg>